<svg width="48" height="48" viewBox="0 0 48 48" fill="none" xmlns="http://www.w3.org/2000/svg">
<path fill-rule="evenodd" clip-rule="evenodd" d="M48 24C48 37.2548 37.2548 48 24 48C10.7452 48 0 37.2548 0 24C0 10.7452 10.7452 0 24 0C37.2548 0 48 10.7452 48 24ZM14.7425 15.3654C11.7939 14.8169 11.0889 17.0797 11.146 18.2797H36.6889C36.6889 15.8797 34.8031 15.3369 33.8603 15.3654C33.4489 12.1426 30.5139 11.6797 28.9711 11.8512C27.9425 8.83401 25.2854 8.40001 24.0854 8.40001C21.3425 8.40001 19.6603 10.6226 19.2031 11.8512C15.8431 11.5083 14.8568 14.0512 14.7425 15.3654ZM12.4554 24.3236L16.9776 38.295C17.2294 39.073 17.954 39.6 18.7717 39.6H20.3289C21.5987 39.6 22.5055 38.3704 22.1305 37.1573L17.8108 23.1859C17.5666 22.3959 16.8361 21.8571 16.0092 21.8571H14.2495C12.9693 21.8571 12.0612 23.1056 12.4554 24.3236ZM26.5776 38.3807L22.0554 24.4093C21.6612 23.1913 22.5693 21.9429 23.8495 21.9429H25.6092C26.4361 21.9429 27.1666 22.4816 27.4108 23.2716L31.7305 37.243C32.1055 38.4561 31.1987 39.6857 29.9289 39.6857H28.3717C27.554 39.6857 26.8294 39.1587 26.5776 38.3807ZM31.273 24.3875L31.799 26.0826C32.348 27.8516 34.852 27.8516 35.401 26.0826L35.927 24.3875C36.3036 23.174 35.3967 21.9429 34.1261 21.9429H33.0739C31.8033 21.9429 30.8964 23.174 31.273 24.3875Z" fill="#FF385C"/>
</svg>
